<?xml version="1.0" encoding="UTF-8"?>
<svg version="1.1" xmlns="http://www.w3.org/2000/svg" width="512" height="512">
<path d="M0 0 C7.88217645 6.54997761 14.03912091 14.46010185 16.25 24.6875 C17.37596676 43.14597151 13.31405452 57.51493519 1.0625 71.875 C-17.81895676 91.6361253 -46.26068955 101.37860789 -70.66094971 112.71618652 C-73.90965651 114.22668759 -77.15605774 115.74211744 -80.40234375 117.2578125 C-84.06054346 118.96565688 -87.71884854 120.673266 -91.37841797 122.37817383 C-98.1897173 125.55228386 -104.99460544 128.73967498 -111.79296875 131.94140625 C-112.93779221 132.48056168 -112.93779221 132.48056168 -114.10574341 133.03060913 C-117.81136463 134.77622504 -121.51638126 136.52311293 -125.22070312 138.27148438 C-129.06088163 140.08310155 -132.90440687 141.88740187 -136.75 143.6875 C-137.85811035 144.20683105 -138.9662207 144.72616211 -140.10791016 145.26123047 C-141.09968262 145.72029785 -142.09145508 146.17936523 -143.11328125 146.65234375 C-143.96833252 147.04929443 -144.82338379 147.44624512 -145.7043457 147.85522461 C-147.75 148.6875 -147.75 148.6875 -149.75 148.6875 C-148.12623355 142.22805456 -146.20285077 135.9049516 -144.05078125 129.60546875 C-143.80939423 128.89705841 -143.5680072 128.18864807 -143.31930542 127.45877075 C-142.31390324 124.51539611 -141.30492653 121.57335586 -140.28491211 118.63500977 C-139.53202774 116.46120214 -138.79063892 114.28373861 -138.05078125 112.10546875 C-137.81958084 111.44910934 -137.58838043 110.79274994 -137.35017395 110.11650085 C-136.03101507 106.20230946 -135.23630689 102.81407962 -135.75 98.6875 C-139.6003105 96.12062633 -141.33569763 96.85461276 -145.75 97.6875 C-145.90279922 98.29054459 -146.05559845 98.89358917 -146.21302795 99.51490784 C-148.49088865 108.19826497 -151.354592 116.66035482 -154.24609375 125.15234375 C-154.79282768 126.76620948 -155.3392368 128.38018528 -155.88534546 129.9942627 C-157.04614657 133.42343258 -158.20878671 136.85197068 -159.37295532 140.27999878 C-162.1359084 148.41640313 -164.88928178 156.55605045 -167.64275932 164.69566536 C-168.2622612 166.52690452 -168.88187653 168.35810531 -169.50160408 170.18926811 C-175.24147161 187.15038937 -180.91666794 204.13238355 -186.5625 221.125 C-193.41851831 241.74774905 -200.34807672 262.34274775 -207.42134094 282.89202881 C-208.9912319 287.45848322 -210.54265822 292.03070773 -212.07810974 296.6088562 C-213.06580464 299.55229424 -214.05980423 302.49358445 -215.05441284 305.43469238 C-215.50600346 306.77553592 -215.95468299 308.11736474 -216.39993286 309.46032715 C-220.38634497 321.47847597 -224.42570174 333.65259837 -234.75 341.6875 C-240.14254202 343.48501401 -245.07507891 343.39272993 -250.3125 341.1875 C-251.5190625 340.445 -251.5190625 340.445 -252.75 339.6875 C-253.00674728 330.80564265 -252.03635339 322.04776929 -251.17358398 313.22167969 C-251.00408975 311.45512531 -250.83499228 309.68853282 -250.66625977 307.92190552 C-250.30356472 304.13220253 -249.93831069 300.34275814 -249.57110405 296.55348969 C-248.99071589 290.561807 -248.41748995 284.56945233 -247.84547424 278.57696533 C-246.32118442 262.61976442 -244.78805873 246.66341538 -243.24948508 230.70758557 C-242.23739779 220.21151743 -241.22945404 209.71507033 -240.22947174 199.21784139 C-239.66158706 193.26006469 -239.08704813 187.30297884 -238.50755489 181.34632063 C-238.14898145 177.64486867 -237.79649109 173.94285623 -237.44571686 170.24065781 C-237.28177869 168.52351648 -237.11532392 166.80661328 -236.94617653 165.08997726 C-236.71575027 162.74780634 -236.49433346 160.40495062 -236.27513123 158.06170654 C-236.14884559 156.75062298 -236.02255995 155.43953941 -235.89244747 154.08872604 C-235.76259973 150.98834433 -235.77228467 148.62492157 -236.75 145.6875 C-239.50698184 143.40611055 -239.50698184 143.40611055 -242.3125 143.875 C-245.08255117 144.52122442 -245.08255117 144.52122442 -246.75 147.6875 C-247.11947698 149.90967201 -247.11947698 149.90967201 -247.18212891 152.39916992 C-247.23043854 153.35413864 -247.27874817 154.30910736 -247.32852173 155.29301453 C-247.40180191 156.83986687 -247.40180191 156.83986687 -247.4765625 158.41796875 C-247.62081837 160.60509753 -247.76939497 162.79194482 -247.921875 164.97851562 C-248.15920382 168.42395146 -248.37450384 171.8629511 -248.51660156 175.3137207 C-249.32177141 193.87395224 -249.32177141 193.87395224 -253.26757812 198.44589233 C-257.03338276 201.28373673 -261.20889758 202.73297237 -265.69720459 204.05197144 C-268.67288467 204.9732175 -271.3842971 206.3352432 -274.171875 207.71484375 C-276.2803105 208.68693617 -278.38971879 209.6569209 -280.5 210.625 C-282.93539441 211.74893804 -285.37040678 212.87365624 -287.8046875 214 C-288.75584946 214.43994545 -288.75584946 214.43994545 -289.72622681 214.88877869 C-297.71377121 218.5889634 -305.66820612 222.35928101 -313.625 226.125 C-325.8936378 231.92951333 -338.17724541 237.69995897 -350.48120117 243.42919922 C-357.25572169 246.58483318 -364.02405158 249.75320995 -370.78515625 252.9375 C-371.93071991 253.47702553 -371.93071991 253.47702553 -373.09942627 254.02745056 C-376.80730669 255.77422021 -380.51457549 257.52227733 -384.22119141 259.27172852 C-388.06116648 261.08334306 -391.90493365 262.88671551 -395.75 264.6875 C-397.38062378 265.45562012 -397.38062378 265.45562012 -399.04418945 266.23925781 C-400.50731567 266.91939941 -400.50731567 266.91939941 -402 267.61328125 C-403.25103516 268.19783081 -403.25103516 268.19783081 -404.52734375 268.79418945 C-407.85623691 270.13210905 -410.23278253 270.37715049 -413.75 269.6875 C-420.70512377 265.45225703 -423.02679618 258.5230196 -426.1875 251.3125 C-426.75737729 250.03871061 -427.32859087 248.76551823 -427.90112305 247.49291992 C-428.74793644 245.60945495 -429.59335786 243.72548638 -430.43226624 241.83848572 C-432.24048197 237.77700075 -434.15926486 233.78963993 -436.1574707 229.81933594 C-439.13167585 223.84043743 -441.03937458 219.34926867 -439.75 212.6875 C-436.09949588 207.14880409 -429.68885848 205.13168869 -423.75 202.6875 C-427.23160021 199.72140375 -431.1132855 198.1543868 -435.3203125 196.5 C-436.43924393 196.05139114 -436.43924393 196.05139114 -437.58078003 195.59371948 C-439.18063914 194.95274584 -440.78151449 194.31430395 -442.38330078 193.67816162 C-445.73297 192.34638421 -449.07600646 190.99835416 -452.41937256 189.65084839 C-454.93698563 188.6361685 -457.45525299 187.62312671 -459.97363281 186.61035156 C-466.57650475 183.95301361 -473.17297132 181.28336838 -479.75 178.5625 C-480.8033252 178.13839844 -481.85665039 177.71429688 -482.94189453 177.27734375 C-492.71247751 173.20450543 -492.71247751 173.20450543 -495.75 168.6875 C-496.77933044 161.97598732 -494.77508322 157.7642201 -491.5 152 C-490.83750244 150.79017456 -490.83750244 150.79017456 -490.16162109 149.5559082 C-488.71042875 146.92180481 -487.23260899 144.30403556 -485.75 141.6875 C-485.22631836 140.75389648 -484.70263672 139.82029297 -484.16308594 138.85839844 C-480.74648953 132.76992821 -477.31826237 126.68866853 -473.75 120.6875 C-473.38745117 120.07213379 -473.02490234 119.45676758 -472.65136719 118.82275391 C-470.6919686 115.66615705 -469.21929192 114.00813671 -465.75 112.6875 C-459.28028534 112.53812464 -452.83600865 114.21013546 -446.6159668 115.83642578 C-445.76422379 116.05275665 -444.91248077 116.26908752 -444.03492737 116.49197388 C-442.20524554 116.95754828 -440.37638125 117.4263456 -438.54828453 117.89810562 C-435.65370363 118.64454978 -432.75679619 119.38125551 -429.85908508 120.115448 C-421.62777963 122.20295702 -413.40117169 124.3087274 -405.17553711 126.41845703 C-400.12826098 127.71228881 -395.07845332 128.99582237 -390.02701759 130.27331161 C-388.1070346 130.76122974 -386.18809174 131.25326009 -384.27023888 131.74948502 C-381.59485176 132.44169959 -378.916466 133.12089787 -376.23706055 133.79736328 C-375.0532933 134.108974 -375.0532933 134.108974 -373.84561157 134.42687988 C-366.81756983 136.17501732 -363.03551589 135.01026558 -356.69140625 131.87890625 C-355.51022217 131.30092285 -354.32903809 130.72293945 -353.11206055 130.12744141 C-352.49148773 129.82074524 -351.87091492 129.51404907 -351.23153687 129.19805908 C-347.9912533 127.59726635 -344.74178386 126.01537535 -341.4921875 124.43359375 C-340.84040024 124.11596069 -340.18861298 123.79832764 -339.51707458 123.47106934 C-330.35040854 119.01733241 -321.05617294 114.84009008 -311.75 110.6875 C-316.18708767 107.02401278 -320.84920822 103.73058912 -325.5625 100.4375 C-326.86018311 99.52919434 -326.86018311 99.52919434 -328.18408203 98.60253906 C-336.12523666 93.07151288 -344.17823772 87.7149574 -352.24536133 82.37011719 C-358.5765731 78.1659843 -364.77993466 73.84389879 -370.9296875 69.37890625 C-376.14717952 65.65150198 -381.52826592 62.16281394 -386.875 58.625 C-411.17395407 42.48384671 -411.17395407 42.48384671 -412.75 36.6875 C-413.21743987 26.5440549 -410.00452771 17.97214211 -403.5 10.3125 C-397.77268383 4.30212043 -391.72132377 1.03970761 -383.38671875 0.44921875 C-381.43185547 0.41248047 -381.43185547 0.41248047 -379.4375 0.375 C-377.52517578 0.31892578 -377.52517578 0.31892578 -375.57421875 0.26171875 C-362.18857867 0.91102219 -349.14571188 7.034347 -336.875 11.9375 C-335.07521628 12.64931421 -333.27507793 13.3602323 -331.47460938 14.0703125 C-327.74634863 15.54148138 -324.01961966 17.01643471 -320.29394531 18.49414062 C-312.46860694 21.59448208 -304.62486707 24.64746774 -296.78137207 27.70150757 C-292.54349683 29.3521985 -288.30698041 31.00636966 -284.0703125 32.66015625 C-282.36491737 33.3257054 -280.65951368 33.99123264 -278.95410156 34.65673828 C-278.10158813 34.98941711 -277.24907471 35.32209595 -276.37072754 35.66485596 C-272.78089114 37.06565965 -269.19099763 38.46631692 -265.60107422 39.86689758 C-263.78429856 40.5757593 -261.9675665 41.28473278 -260.15087891 41.99382019 C-255.74766581 43.71236889 -251.34384039 45.42930534 -246.93847656 47.14233398 C-239.68931261 49.96314369 -232.44745698 52.79517106 -225.2421875 55.7265625 C-223.62497803 56.37927124 -223.62497803 56.37927124 -221.97509766 57.04516602 C-220.07185286 57.81592862 -218.17262405 58.59673184 -216.27880859 59.39038086 C-215.47008301 59.71659424 -214.66135742 60.04280762 -213.828125 60.37890625 C-213.15168945 60.65935791 -212.47525391 60.93980957 -211.77832031 61.22875977 C-206.42240229 62.44009462 -201.63310422 59.38727697 -196.93359375 57.109375 C-196.17341446 56.74662476 -195.41323517 56.38387451 -194.63002014 56.01013184 C-192.99713922 55.23025212 -191.36545598 54.44786074 -189.73486328 53.66320801 C-186.28986215 52.00558599 -182.83907477 50.3601871 -179.38845825 48.71429443 C-177.64588631 47.88305904 -175.90359748 47.05122991 -174.16159058 46.21881104 C-166.88057541 42.74142747 -159.57388859 39.32363034 -152.25 35.9375 C-150.00780685 34.89975179 -147.76561934 33.8619914 -145.5234375 32.82421875 C-143.86586426 32.05730713 -143.86586426 32.05730713 -142.17480469 31.27490234 C-136.70019919 28.73741411 -131.23244087 26.18530052 -125.76507568 23.63226318 C-123.88423416 22.75431039 -122.00296065 21.87728945 -120.12158203 21.00048828 C-113.7032051 18.00804603 -107.29204361 15.00121506 -100.890625 11.97265625 C-29.33617856 -21.84296434 -29.33617856 -21.84296434 0 0 Z " fill="#000000" transform="translate(495.75,95.3125)"/>
</svg>
